<svg xmlns="http://www.w3.org/2000/svg" viewBox="0 0 331.45 59.25">
  <defs>
    <style>
      .cls-1 {
        fill: #fff;
      }
    </style>
  </defs>
  <g id="Layer_2" data-name="Layer 2">
    <g id="Layer_1-2" data-name="Layer 1">
      <g>
        <g>
          <path class="cls-1" d="M37,29.17a5.47,5.47,0,0,0,3.49-5.08c0-2.73-2-4.73-5.68-5.56V13.38H30.1V18.1H27.27V13.38H22.56V18.1H17.74v23h4.82v4.73h4.71V41.15H30.1v4.73h4.71v-5c4.67-.68,7.08-2.81,7.08-6C41.89,31.9,39.91,30,37,29.17ZM22.79,21.46H30.1c2.29,0,3.9.51,4.71,1.47a2.62,2.62,0,0,1,.6,1.73,2.56,2.56,0,0,1-.6,1.7c-.81.95-2.43,1.43-4.71,1.45H22.79Zm12,15.76a10.57,10.57,0,0,1-3.87.57H22.79V31.14h8.15a10.57,10.57,0,0,1,3.87.57,2.9,2.9,0,0,1,0,5.51Z"/>
          <path class="cls-1" d="M59.63,28.89A28.38,28.38,0,0,1,58,38.64a27.44,27.44,0,0,1-3.5,6.76l1.66,1.12L51.32,48.9l.38-5.41L54,45a30,30,0,0,0,2.47-6.84A28.82,28.82,0,0,0,57.05,29a28.16,28.16,0,0,0-2.25-8.74,29,29,0,0,0-2.11-4A27.85,27.85,0,0,0,50,12.77,28.19,28.19,0,0,0,43,7.18,27.72,27.72,0,0,0,34.74,4a25.56,25.56,0,0,0-4.44-.56,26,26,0,0,0-4.5.17,27.17,27.17,0,0,0-8.6,2.6,28.41,28.41,0,0,0-3.88,2.35,26.94,26.94,0,0,0-3.43,3A26.43,26.43,0,0,0,7,15,28.19,28.19,0,0,0,4.68,19a27.34,27.34,0,0,0-2.49,8.79,28.28,28.28,0,0,0-.11,4.6A26.06,26.06,0,0,0,2.72,37,27.46,27.46,0,0,0,6.2,45.5,29.66,29.66,0,0,0,9,49.25,28.47,28.47,0,0,0,29.7,58.88v.37a29,29,0,0,1-9.51-1.39A30,30,0,0,1,15.73,56a27.94,27.94,0,0,1-4.1-2.62A30.12,30.12,0,0,1,8,50.13,29.55,29.55,0,0,1,5,46.3,29,29,0,0,1,.11,32.52a30.17,30.17,0,0,1,0-4.94A29.83,29.83,0,0,1,2.51,18a30.23,30.23,0,0,1,2.37-4.37A31.53,31.53,0,0,1,8,9.7a29.83,29.83,0,0,1,7.89-6.09A30.61,30.61,0,0,1,35.42.43a29.13,29.13,0,0,1,17.3,9.93,30,30,0,0,1,5.08,8.71,28.11,28.11,0,0,1,1.34,4.85A28.67,28.67,0,0,1,59.63,28.89Z"/>
        </g>
        <g>
          <path class="cls-1" d="M65.51,29.63c0-4.69,3.59-8,8.48-8a8.16,8.16,0,0,1,6.62,2.9L77.84,27a4.55,4.55,0,0,0-3.63-1.8,4.13,4.13,0,0,0-4.3,4.4,4.13,4.13,0,0,0,4.3,4.4,4.56,4.56,0,0,0,3.63-1.81l2.77,2.51A8.16,8.16,0,0,1,74,37.64C69.1,37.64,65.51,34.31,65.51,29.63Z"/>
          <path class="cls-1" d="M89.28,33.24H86.9v4.09H82.54V21.93h7c4.21,0,6.85,2.17,6.85,5.7a5.11,5.11,0,0,1-3,4.86l3.33,4.84H92.07Zm0-7.88H86.9v4.51h2.42c1.81,0,2.71-.84,2.71-2.24S91.13,25.36,89.32,25.36Z"/>
          <path class="cls-1" d="M106.86,31.81v5.52H102.5V31.74l-5.87-9.81h4.6L104.88,28l3.65-6.11h4.23Z"/>
          <path class="cls-1" d="M127.67,27.63c0,3.49-2.64,5.67-6.84,5.67h-2.68v4h-4.36V21.93h7C125,21.93,127.67,24.1,127.67,27.63Zm-4.4,0c0-1.44-.9-2.27-2.7-2.27h-2.42v4.51h2.42C122.37,29.87,123.27,29,123.27,27.63Z"/>
          <path class="cls-1" d="M132.69,25.38H128V21.93h13.8v3.45h-4.71v12h-4.36Z"/>
          <path class="cls-1" d="M142.37,29.63c0-4.62,3.63-8,8.56-8s8.56,3.39,8.56,8-3.63,8-8.56,8S142.37,34.25,142.37,29.63Zm12.72,0a4.17,4.17,0,1,0-8.32,0,4.17,4.17,0,1,0,8.32,0Z"/>
          <path class="cls-1" d="M172.67,33.87v3.46h-12V34.6l5.76-5.39c1.24-1.14,1.41-1.85,1.41-2.49,0-1-.66-1.58-2-1.58a3.15,3.15,0,0,0-2.75,1.49l-3.23-1.8a7,7,0,0,1,6.38-3.21c3.54,0,6,1.82,6,4.68,0,1.5-.42,2.87-2.62,4.89l-2.9,2.68Z"/>
          <path class="cls-1" d="M188.36,34.38h-2.29v2.95h-4.24V34.38h-8.15V31.54l6.91-9.61h4.51l-6.27,9H182V28.31h4.11v2.62h2.29Z"/>
          <path class="cls-1" d="M200.92,21.93v2.72l-5.43,12.68h-4.75l5.19-11.95h-4.05v2.38h-3.72V21.93Z"/>
          <path class="cls-1" d="M224.16,21.93v15.4h-3.59l-6.8-8.21v8.21h-4.26V21.93h3.58l6.8,8.2v-8.2Z"/>
          <path class="cls-1" d="M239.61,34v3.37H227.24V21.93h12.08v3.36h-7.77v2.6h6.85v3.26h-6.85V34Z"/>
          <path class="cls-1" d="M245.31,25.38h-4.73V21.93h13.79v3.45h-4.71v12h-4.35Z"/>
          <path class="cls-1" d="M279.79,21.93l-5,15.4h-4.66L267.18,28l-3.08,9.37h-4.67l-5-15.4h4.49l3.1,9.83,3.26-9.83h4l3.1,9.92,3.24-9.92Z"/>
          <path class="cls-1" d="M280.36,29.63c0-4.62,3.63-8,8.56-8s8.56,3.39,8.56,8-3.63,8-8.56,8S280.36,34.25,280.36,29.63Zm12.72,0a4.17,4.17,0,1,0-8.32,0,4.17,4.17,0,1,0,8.32,0Z"/>
          <path class="cls-1" d="M306.5,33.24h-2.38v4.09h-4.35V21.93h7c4.2,0,6.84,2.17,6.84,5.7a5.12,5.12,0,0,1-3,4.86L314,37.33h-4.67Zm0-7.88h-2.42v4.51h2.42c1.81,0,2.71-.84,2.71-2.24S308.35,25.36,306.54,25.36Z"/>
          <path class="cls-1" d="M322,31.74l-1.63,1.74v3.85h-4.31V21.93h4.31v6.4l6-6.4h4.8l-6.29,6.82,6.62,8.58h-5.06Z"/>
        </g>
      </g>
    </g>
  </g>
</svg>
