<svg xmlns="http://www.w3.org/2000/svg" viewBox="0 0 228.52 85.09">
  <defs>
    <style>
      .cls-1 {
        fill: #fff;
      }
    </style>
  </defs>
  <g id="Layer_2" data-name="Layer 2">
    <g id="Layer_1-2" data-name="Layer 1">
      <g>
        <g>
          <path class="cls-1" d="M53.13,41.88a7.86,7.86,0,0,0,5-7.28c0-3.93-2.81-6.8-8.16-8v-7.4H43.22V26H39.16V19.21H32.39V26H25.48V59.1h6.91v6.78h6.77V59.1h4.06v6.78H50V58.76c6.7-1,10.17-4,10.17-8.65C60.16,45.81,57.31,43,53.13,41.88ZM32.72,30.82h10.5c3.29,0,5.61.73,6.77,2.11a3.73,3.73,0,0,1,.85,2.48A3.66,3.66,0,0,1,50,37.85c-1.17,1.36-3.49,2.06-6.77,2.09H32.72ZM50,53.45a15.21,15.21,0,0,1-5.56.82H32.72V44.72H44.43a15.21,15.21,0,0,1,5.56.82,4.16,4.16,0,0,1,0,7.91Z"/>
          <path class="cls-1" d="M85.63,41.49a42.28,42.28,0,0,1-.53,7.12,41.18,41.18,0,0,1-1.75,6.87,39.31,39.31,0,0,1-5,9.72l2.38,1.6-7,3.42.54-7.77,3.24,2.19A42.76,42.76,0,0,0,81,54.81a41.85,41.85,0,0,0,.89-13.13,40.25,40.25,0,0,0-3.24-12.56,40.74,40.74,0,0,0-3-5.69,38.2,38.2,0,0,0-3.94-5.09A40.69,40.69,0,0,0,49.89,5.74a39.5,39.5,0,0,0-12.84-.55A38.51,38.51,0,0,0,24.69,8.92a39.44,39.44,0,0,0-5.56,3.38,38.52,38.52,0,0,0-4.93,4.27,38.3,38.3,0,0,0-7.48,10.7A39.36,39.36,0,0,0,3,46.5a37.26,37.26,0,0,0,.91,6.56,39.83,39.83,0,0,0,5,12.28,42.39,42.39,0,0,0,4,5.38A40.86,40.86,0,0,0,42.64,84.56v.53a42.33,42.33,0,0,1-13.65-2,44.34,44.34,0,0,1-6.41-2.69A43.16,43.16,0,0,1,11.48,72a42,42,0,0,1-4.36-5.49A41.62,41.62,0,0,1,1.35,53.68a39.18,39.18,0,0,1-1.19-7A42.39,42.39,0,0,1,3.61,25.85,41.84,41.84,0,0,1,7,19.57a42.78,42.78,0,0,1,4.42-5.63,44.15,44.15,0,0,1,5.28-4.86,45.2,45.2,0,0,1,6.05-3.9A43.87,43.87,0,0,1,50.86.62,41.8,41.8,0,0,1,75.7,14.88,43,43,0,0,1,83,27.38a41.27,41.27,0,0,1,1.92,7A42,42,0,0,1,85.63,41.49Z"/>
        </g>
        <g>
          <path class="cls-1" d="M93.11,29.34c0-4.68,3.59-8,8.47-8a8.17,8.17,0,0,1,6.63,2.91l-2.78,2.51a4.54,4.54,0,0,0-3.63-1.81,4.13,4.13,0,0,0-4.29,4.4,4.13,4.13,0,0,0,4.29,4.4,4.53,4.53,0,0,0,3.63-1.8l2.78,2.51a8.16,8.16,0,0,1-6.63,2.9C96.7,37.35,93.11,34,93.11,29.34Z"/>
          <path class="cls-1" d="M116.87,33H114.5V37h-4.36V21.64h7c4.2,0,6.84,2.18,6.84,5.7a5.1,5.1,0,0,1-3,4.86L124.33,37h-4.66Zm0-7.88H114.5v4.51h2.42c1.8,0,2.7-.83,2.7-2.24S118.72,25.07,116.92,25.07Z"/>
          <path class="cls-1" d="M134.46,31.52V37H130.1V31.46l-5.88-9.82h4.6l3.66,6.12,3.65-6.12h4.22Z"/>
          <path class="cls-1" d="M155.27,27.34c0,3.5-2.64,5.68-6.84,5.68h-2.69v4h-4.35V21.64h7C152.63,21.64,155.27,23.82,155.27,27.34Zm-4.4,0c0-1.43-.9-2.27-2.71-2.27h-2.42v4.51h2.42C150,29.58,150.87,28.75,150.87,27.34Z"/>
          <path class="cls-1" d="M160.29,25.1h-4.73V21.64h13.79V25.1h-4.71V37h-4.35Z"/>
          <path class="cls-1" d="M170,29.34c0-4.62,3.63-8,8.56-8s8.56,3.39,8.56,8-3.63,8-8.56,8S170,34,170,29.34Zm12.72,0a4.17,4.17,0,1,0-8.32,0,4.17,4.17,0,1,0,8.32,0Z"/>
          <path class="cls-1" d="M200.27,33.59V37h-12V34.32l5.76-5.4c1.23-1.14,1.41-1.84,1.41-2.48,0-1-.66-1.59-2-1.59a3.15,3.15,0,0,0-2.75,1.5l-3.24-1.8a7.07,7.07,0,0,1,6.39-3.22c3.54,0,6,1.83,6,4.69,0,1.5-.42,2.86-2.62,4.89l-2.9,2.68Z"/>
          <path class="cls-1" d="M216,34.1h-2.29V37h-4.25V34.1h-8.14V31.26l6.91-9.62h4.51l-6.27,9h3.12V28h4.12v2.62H216Z"/>
          <path class="cls-1" d="M228.52,21.64v2.73L223.09,37h-4.76l5.2-11.94h-4.05v2.37h-3.72V21.64Z"/>
          <path class="cls-1" d="M108.56,48.05v15.4H105l-6.8-8.21v8.21H93.9V48.05h3.59l6.8,8.2v-8.2Z"/>
          <path class="cls-1" d="M124,60.08v3.37H111.64V48.05h12.08v3.36H116V54h6.84v3.26H116v2.81Z"/>
          <path class="cls-1" d="M129.7,51.5H125V48.05h13.8V51.5h-4.71v12H129.7Z"/>
          <path class="cls-1" d="M164.18,48.05l-5,15.4h-4.67l-3-9.37-3.08,9.37h-4.66l-5-15.4h4.49l3.11,9.83,3.25-9.83h4l3.1,9.92L160,48.05Z"/>
          <path class="cls-1" d="M164.75,55.75c0-4.62,3.64-8,8.56-8s8.56,3.39,8.56,8-3.63,8-8.56,8S164.75,60.37,164.75,55.75Zm12.72,0a4.16,4.16,0,1,0-8.31,0,4.16,4.16,0,1,0,8.31,0Z"/>
          <path class="cls-1" d="M190.9,59.36h-2.38v4.09h-4.36V48.05h7c4.21,0,6.85,2.17,6.85,5.7a5.11,5.11,0,0,1-3,4.86l3.32,4.84h-4.66Zm0-7.88h-2.42V56h2.42c1.8,0,2.71-.84,2.71-2.24S192.74,51.48,190.94,51.48Z"/>
          <path class="cls-1" d="M206.39,57.86l-1.63,1.74v3.85h-4.32V48.05h4.32v6.4l6-6.4h4.8l-6.3,6.82,6.63,8.58h-5.06Z"/>
        </g>
      </g>
    </g>
  </g>
</svg>
