<svg id="Layer_1" data-name="Layer 1" xmlns="http://www.w3.org/2000/svg" viewBox="0 0 324.45 90.27"><defs><style>.cls-1,.cls-3{fill:#17499b;}.cls-2{fill:#0fcfc3;}.cls-3{font-size:19.82px;font-family:Montserrat-Bold, Montserrat;font-weight:700;}.cls-4{letter-spacing:-0.01em;}.cls-5{letter-spacing:0.02em;}.cls-6{letter-spacing:0.01em;}</style></defs><title>Artboard 2</title><path class="cls-1" d="M106.83,38.72l1.1-2.45a8.23,8.23,0,0,0,4.64,1.47c1.93,0,2.71-.64,2.71-1.51,0-2.63-8.17-.82-8.17-6,0-2.39,1.93-4.38,5.92-4.38a9.35,9.35,0,0,1,4.88,1.25l-1,2.47a7.89,7.89,0,0,0-3.9-1.11c-1.92,0-2.67.72-2.67,1.61,0,2.59,8.17.8,8.17,6,0,2.35-1.94,4.36-6,4.36A10,10,0,0,1,106.83,38.72Z"/><path class="cls-1" d="M133.54,40.11l0-8.44-4.14,6.95h-1.46l-4.12-6.76v8.25h-3V26.05h2.69l5.26,8.74,5.18-8.74h2.67l0,14.06Z"/><path class="cls-1" d="M149.19,37.1h-6.53l-1.24,3h-3.33l6.26-14.06h3.21l6.29,14.06h-3.42Zm-1-2.47-2.23-5.39-2.23,5.39Z"/><path class="cls-1" d="M164.28,40.11l-2.72-3.92h-3v3.92h-3.25V26.05h6.08c3.76,0,6.11,1.95,6.11,5.1a4.58,4.58,0,0,1-2.89,4.44l3.15,4.52ZM161.22,28.7h-2.65v4.9h2.65c2,0,3-.92,3-2.45S163.21,28.7,161.22,28.7Z"/><path class="cls-1" d="M172.79,28.7H168.3V26.05h12.25V28.7h-4.5V40.11h-3.26Z"/><path class="cls-1" d="M181.21,33.08c0-4.18,3.26-7.27,7.69-7.27s7.69,3.07,7.69,7.27-3.27,7.27-7.69,7.27S181.21,37.26,181.21,33.08Zm12.09,0a4.4,4.4,0,1,0-8.79,0,4.4,4.4,0,1,0,8.79,0Z"/><path class="cls-1" d="M211.24,31.15c0,3.14-2.35,5.08-6.11,5.08H202.3v3.88h-3.25V26.05h6.08C208.89,26.05,211.24,28,211.24,31.15Zm-3.29,0c0-1.54-1-2.45-3-2.45H202.3v4.88H205C206.94,33.58,208,32.68,208,31.15Z"/><path class="cls-1" d="M216.08,28.7h-4.49V26.05h12.25V28.7h-4.5V40.11h-3.26Z"/><path class="cls-1" d="M225.59,26.05h3.25V40.11h-3.25Z"/><path class="cls-1" d="M231.29,33.08c0-4.18,3.26-7.27,7.69-7.27s7.69,3.07,7.69,7.27-3.27,7.27-7.69,7.27S231.29,37.26,231.29,33.08Zm12.09,0a4.4,4.4,0,1,0-8.79,0,4.4,4.4,0,1,0,8.79,0Z"/><path class="cls-1" d="M262,26.05V40.11h-2.67l-7-8.54v8.54h-3.21V26.05h2.69l7,8.54V26.05Z"/><path class="cls-1" d="M264.26,38.72l1.1-2.45A8.23,8.23,0,0,0,270,37.74c1.93,0,2.71-.64,2.71-1.51,0-2.63-8.17-.82-8.17-6,0-2.39,1.93-4.38,5.92-4.38a9.35,9.35,0,0,1,4.88,1.25l-1,2.47a7.89,7.89,0,0,0-3.9-1.11c-1.93,0-2.67.72-2.67,1.61,0,2.59,8.17.8,8.17,6,0,2.35-1.94,4.36-6,4.36A10,10,0,0,1,264.26,38.72Z"/><path class="cls-2" d="M107,62.41a1.95,1.95,0,0,1,3.89,0,1.95,1.95,0,1,1-3.89,0Z"/><path class="cls-2" d="M111.91,57.19c0-4.18,3.25-7.27,7.69-7.27s7.69,3.07,7.69,7.27-3.27,7.26-7.69,7.26S111.91,61.36,111.91,57.19Zm12.09,0a4.4,4.4,0,1,0-4.4,4.49A4.29,4.29,0,0,0,124,57.19Z"/><path class="cls-2" d="M142.64,50.16v14H140l-7-8.53v8.53h-3.21v-14h2.69l7,8.53V50.16Z"/><path class="cls-2" d="M146,50.16h3.25v11.4h7.05v2.65H146Z"/><path class="cls-2" d="M158.11,50.16h3.26v14h-3.26Z"/><path class="cls-2" d="M177.59,50.16v14h-2.67l-7-8.53v8.53H164.7v-14h2.69l7,8.53V50.16Z"/><path class="cls-2" d="M191.82,61.6v2.61H180.93v-14h10.62v2.61h-7.39v3h6.53v2.53h-6.53V61.6Z"/><path class="cls-1" d="M69,19.77A28,28,0,0,0,41.2,42.43c-.12.81-.31,1.62-.37,2.44l-.17,2.46.08,2.47A22.58,22.58,0,0,0,41,52.26,28.8,28.8,0,0,0,68.81,76.48a30,30,0,0,0,10-1.54A29.65,29.65,0,0,0,98.47,42.57a30.17,30.17,0,0,0-9.77-18A30.35,30.35,0,0,1,99.11,53.05a30.71,30.71,0,0,1-19.7,23.66,31.94,31.94,0,0,1-10.61,2A31.54,31.54,0,0,1,41.49,63.15a31.88,31.88,0,0,1-4-21.38A32.36,32.36,0,0,1,48.27,22.63,32.93,32.93,0,0,1,69,14.77Z"/><polygon class="cls-1" points="73.45 18.88 66.76 12.68 64.73 21.58 73.45 18.88"/><text class="cls-3" transform="translate(46.1 52.24)"><tspan class="cls-4">2</tspan><tspan class="cls-5" x="11.5" y="0">4</tspan><tspan class="cls-6" x="25.63" y="0">/</tspan><tspan x="33.54" y="0">7</tspan></text></svg>